<mxfile host="app.diagrams.net" modified="2020-06-10T07:03:03.265Z" agent="5.0 (Macintosh; Intel Mac OS X 10_15_4) AppleWebKit/537.36 (KHTML, like Gecko) Chrome/83.0.4103.61 Safari/537.36" etag="6I0n5lWlVwzJ86zXwS_N" version="13.1.3" type="github">
  <diagram id="wGNWwgJgoCwC0jG4wGCJ" name="第 1 页">
    <mxGraphModel dx="2061" dy="2019" grid="0" gridSize="10" guides="1" tooltips="1" connect="1" arrows="1" fold="1" page="0" pageScale="1" pageWidth="1920" pageHeight="2200" math="0" shadow="0">
      <root>
        <mxCell id="0" />
        <mxCell id="1" parent="0" />
        <mxCell id="_iwvBpTfkNNGq4-8pk6j-16" value="" style="rounded=0;whiteSpace=wrap;html=1;fillColor=#eeeeee;fontSize=16;strokeColor=none;" vertex="1" parent="1">
          <mxGeometry x="-543" y="-289" width="662" height="185" as="geometry" />
        </mxCell>
        <mxCell id="_iwvBpTfkNNGq4-8pk6j-4" value="&lt;span style=&quot;font-size: 18px&quot;&gt;多形态KA业务&lt;br&gt;组件支持&lt;/span&gt;" style="text;html=1;strokeColor=none;fillColor=none;align=center;verticalAlign=middle;whiteSpace=wrap;rounded=0;fontSize=16;fontColor=#333333;fontStyle=0" vertex="1" parent="1">
          <mxGeometry x="-787" y="-732.5" width="179" height="45" as="geometry" />
        </mxCell>
        <mxCell id="_iwvBpTfkNNGq4-8pk6j-6" value="&lt;font color=&quot;#ffffff&quot;&gt;template&lt;/font&gt;" style="rounded=0;whiteSpace=wrap;html=1;fontSize=16;strokeColor=none;fillColor=#97D077;gradientColor=none;" vertex="1" parent="1">
          <mxGeometry x="-517" y="-255" width="126" height="44" as="geometry" />
        </mxCell>
        <mxCell id="_iwvBpTfkNNGq4-8pk6j-9" value="&lt;font color=&quot;#ffffff&quot;&gt;mixin&lt;/font&gt;" style="rounded=0;whiteSpace=wrap;html=1;fontSize=16;strokeColor=none;fillColor=#97D077;gradientColor=none;" vertex="1" parent="1">
          <mxGeometry x="-356" y="-255" width="126" height="44" as="geometry" />
        </mxCell>
        <mxCell id="_iwvBpTfkNNGq4-8pk6j-10" value="&lt;font color=&quot;#ffffff&quot;&gt;resource&lt;/font&gt;" style="rounded=0;whiteSpace=wrap;html=1;fontSize=16;strokeColor=none;fillColor=#97D077;gradientColor=none;" vertex="1" parent="1">
          <mxGeometry x="-195" y="-255" width="126" height="44" as="geometry" />
        </mxCell>
        <mxCell id="_iwvBpTfkNNGq4-8pk6j-12" value="&lt;font color=&quot;#ffffff&quot;&gt;common&lt;/font&gt;" style="rounded=0;whiteSpace=wrap;html=1;fontSize=16;strokeColor=none;fillColor=#97D077;gradientColor=none;" vertex="1" parent="1">
          <mxGeometry x="-519" y="-181" width="126" height="44" as="geometry" />
        </mxCell>
        <mxCell id="_iwvBpTfkNNGq4-8pk6j-13" value="&lt;font color=&quot;#ffffff&quot;&gt;event&lt;/font&gt;" style="rounded=0;whiteSpace=wrap;html=1;fontSize=16;strokeColor=none;fillColor=#97D077;gradientColor=none;" vertex="1" parent="1">
          <mxGeometry x="-356" y="-181" width="126" height="44" as="geometry" />
        </mxCell>
        <mxCell id="_iwvBpTfkNNGq4-8pk6j-14" value="&lt;font color=&quot;#ffffff&quot;&gt;lux&lt;/font&gt;" style="rounded=0;whiteSpace=wrap;html=1;fontSize=16;strokeColor=none;fillColor=#97D077;gradientColor=none;" vertex="1" parent="1">
          <mxGeometry x="-193" y="-181" width="126" height="44" as="geometry" />
        </mxCell>
        <mxCell id="_iwvBpTfkNNGq4-8pk6j-17" value="&lt;font color=&quot;#ffffff&quot;&gt;jsapi-adapter&lt;/font&gt;" style="rounded=0;whiteSpace=wrap;html=1;fontSize=16;strokeColor=none;fillColor=#97D077;gradientColor=none;" vertex="1" parent="1">
          <mxGeometry x="-34" y="-255" width="126" height="44" as="geometry" />
        </mxCell>
        <mxCell id="_iwvBpTfkNNGq4-8pk6j-18" value="&lt;font color=&quot;#ffffff&quot;&gt;....&lt;/font&gt;" style="rounded=0;whiteSpace=wrap;html=1;fontSize=16;strokeColor=none;fillColor=#97D077;gradientColor=none;" vertex="1" parent="1">
          <mxGeometry x="-26.5" y="-181" width="111" height="44" as="geometry" />
        </mxCell>
        <mxCell id="_iwvBpTfkNNGq4-8pk6j-19" value="" style="rounded=0;whiteSpace=wrap;html=1;fillColor=#eeeeee;fontSize=16;strokeColor=none;" vertex="1" parent="1">
          <mxGeometry x="-543" y="-500" width="662" height="185" as="geometry" />
        </mxCell>
        <mxCell id="_iwvBpTfkNNGq4-8pk6j-20" value="&lt;font color=&quot;#ffffff&quot;&gt;catering-tab&lt;/font&gt;" style="rounded=0;whiteSpace=wrap;html=1;fontSize=16;strokeColor=#d79b00;fillColor=#EA6B66;" vertex="1" parent="1">
          <mxGeometry x="-517" y="-472" width="126" height="44" as="geometry" />
        </mxCell>
        <mxCell id="_iwvBpTfkNNGq4-8pk6j-21" value="&lt;font color=&quot;#ffffff&quot;&gt;keyboard&lt;/font&gt;" style="rounded=0;whiteSpace=wrap;html=1;fontSize=16;strokeColor=#d79b00;fillColor=#EA6B66;" vertex="1" parent="1">
          <mxGeometry x="-351" y="-472" width="126" height="44" as="geometry" />
        </mxCell>
        <mxCell id="_iwvBpTfkNNGq4-8pk6j-22" value="&lt;font color=&quot;#ffffff&quot;&gt;animate-ball&lt;/font&gt;" style="rounded=0;whiteSpace=wrap;html=1;fontSize=16;strokeColor=#d79b00;fillColor=#EA6B66;" vertex="1" parent="1">
          <mxGeometry x="-185" y="-472" width="126" height="44" as="geometry" />
        </mxCell>
        <mxCell id="_iwvBpTfkNNGq4-8pk6j-23" value="&lt;font color=&quot;#ffffff&quot;&gt;immersion-bar&lt;/font&gt;" style="rounded=0;whiteSpace=wrap;html=1;fontSize=16;strokeColor=#d79b00;fillColor=#EA6B66;" vertex="1" parent="1">
          <mxGeometry x="-26.5" y="-472" width="126" height="44" as="geometry" />
        </mxCell>
        <mxCell id="_iwvBpTfkNNGq4-8pk6j-24" value="&lt;font color=&quot;#ffffff&quot;&gt;.....&lt;/font&gt;" style="rounded=0;whiteSpace=wrap;html=1;fontSize=16;strokeColor=#d79b00;fillColor=#EA6B66;" vertex="1" parent="1">
          <mxGeometry x="-18.5" y="-393" width="110" height="44" as="geometry" />
        </mxCell>
        <mxCell id="_iwvBpTfkNNGq4-8pk6j-25" value="&lt;font color=&quot;#ffffff&quot;&gt;lazy-load&lt;/font&gt;" style="rounded=0;whiteSpace=wrap;html=1;fontSize=16;strokeColor=#d79b00;fillColor=#EA6B66;" vertex="1" parent="1">
          <mxGeometry x="-517" y="-390" width="126" height="44" as="geometry" />
        </mxCell>
        <mxCell id="_iwvBpTfkNNGq4-8pk6j-26" value="&lt;font color=&quot;#ffffff&quot;&gt;order-amount&lt;/font&gt;" style="rounded=0;whiteSpace=wrap;html=1;fontSize=16;strokeColor=#d79b00;fillColor=#EA6B66;" vertex="1" parent="1">
          <mxGeometry x="-351" y="-393" width="126" height="44" as="geometry" />
        </mxCell>
        <mxCell id="_iwvBpTfkNNGq4-8pk6j-27" value="&lt;font color=&quot;#ffffff&quot;&gt;rich-text&lt;/font&gt;" style="rounded=0;whiteSpace=wrap;html=1;fontSize=16;strokeColor=#d79b00;fillColor=#EA6B66;" vertex="1" parent="1">
          <mxGeometry x="-185" y="-393" width="126" height="44" as="geometry" />
        </mxCell>
        <mxCell id="_iwvBpTfkNNGq4-8pk6j-28" value="&lt;span style=&quot;font-size: 18px&quot;&gt;&lt;span&gt;非业务强&lt;br&gt;耦合组件&lt;/span&gt;&lt;/span&gt;" style="text;html=1;strokeColor=none;fillColor=none;align=center;verticalAlign=middle;whiteSpace=wrap;rounded=0;fontSize=16;fontColor=#333333;fontStyle=0" vertex="1" parent="1">
          <mxGeometry x="-719" y="-430" width="179" height="45" as="geometry" />
        </mxCell>
        <mxCell id="_iwvBpTfkNNGq4-8pk6j-29" value="&lt;span style=&quot;font-size: 18px&quot;&gt;&lt;span&gt;通用基础&lt;br&gt;&lt;/span&gt;&lt;/span&gt;" style="text;html=1;strokeColor=none;fillColor=none;align=center;verticalAlign=middle;whiteSpace=wrap;rounded=0;fontSize=16;fontColor=#333333;fontStyle=0" vertex="1" parent="1">
          <mxGeometry x="-722" y="-219" width="179" height="45" as="geometry" />
        </mxCell>
        <mxCell id="_iwvBpTfkNNGq4-8pk6j-43" value="" style="edgeStyle=entityRelationEdgeStyle;rounded=0;jumpStyle=arc;jumpSize=4;orthogonalLoop=1;jettySize=auto;html=1;dashed=1;fontSize=16;fontColor=#333333;exitX=0.5;exitY=1;exitDx=0;exitDy=0;entryX=0;entryY=0.5;entryDx=0;entryDy=0;" edge="1" parent="1" source="_iwvBpTfkNNGq4-8pk6j-30" target="_iwvBpTfkNNGq4-8pk6j-44">
          <mxGeometry relative="1" as="geometry">
            <mxPoint x="-402" y="-535" as="targetPoint" />
          </mxGeometry>
        </mxCell>
        <mxCell id="_iwvBpTfkNNGq4-8pk6j-30" value="Multiservice PatternComponent" style="rounded=0;whiteSpace=wrap;html=1;fontSize=16;opacity=50;" vertex="1" parent="1">
          <mxGeometry x="-619" y="-729" width="161" height="42" as="geometry" />
        </mxCell>
        <mxCell id="_iwvBpTfkNNGq4-8pk6j-31" value="" style="endArrow=none;dashed=1;html=1;fontSize=16;fontColor=#333333;" edge="1" parent="1">
          <mxGeometry width="50" height="50" relative="1" as="geometry">
            <mxPoint x="-429" y="-517" as="sourcePoint" />
            <mxPoint x="-429" y="-887" as="targetPoint" />
          </mxGeometry>
        </mxCell>
        <mxCell id="_iwvBpTfkNNGq4-8pk6j-36" value="" style="endArrow=classic;html=1;fontSize=16;fontColor=#333333;jumpStyle=arc;jumpSize=4;exitX=0.5;exitY=0;exitDx=0;exitDy=0;edgeStyle=entityRelationEdgeStyle;dashed=1;entryX=0;entryY=0.5;entryDx=0;entryDy=0;" edge="1" parent="1" source="_iwvBpTfkNNGq4-8pk6j-30" target="_iwvBpTfkNNGq4-8pk6j-37">
          <mxGeometry width="50" height="50" relative="1" as="geometry">
            <mxPoint x="-529" y="-814" as="sourcePoint" />
            <mxPoint x="-402" y="-789" as="targetPoint" />
          </mxGeometry>
        </mxCell>
        <mxCell id="_iwvBpTfkNNGq4-8pk6j-37" value="axml" style="rounded=0;whiteSpace=wrap;html=1;fontSize=16;opacity=50;" vertex="1" parent="1">
          <mxGeometry x="-398" y="-846" width="161" height="42" as="geometry" />
        </mxCell>
        <mxCell id="_iwvBpTfkNNGq4-8pk6j-44" value="js" style="rounded=0;whiteSpace=wrap;html=1;fontSize=16;opacity=50;" vertex="1" parent="1">
          <mxGeometry x="-401" y="-622" width="161" height="42" as="geometry" />
        </mxCell>
        <mxCell id="_iwvBpTfkNNGq4-8pk6j-45" value="" style="endArrow=none;dashed=1;html=1;fontSize=16;fontColor=#333333;" edge="1" parent="1">
          <mxGeometry width="50" height="50" relative="1" as="geometry">
            <mxPoint x="-208.00000000000023" y="-515" as="sourcePoint" />
            <mxPoint x="-208" y="-890" as="targetPoint" />
          </mxGeometry>
        </mxCell>
      </root>
    </mxGraphModel>
  </diagram>
</mxfile>
